<mxfile host="app.diagrams.net" agent="Mozilla/5.0 (Windows NT 10.0; Win64; x64) AppleWebKit/537.36 (KHTML, like Gecko) Chrome/129.0.0.0 Safari/537.36 Edg/129.0.0.0" version="24.7.16">
  <diagram name="Page-1" id="tHewt-plReYWBCTNkzJ1">
    <mxGraphModel dx="804" dy="1706" grid="1" gridSize="10" guides="1" tooltips="1" connect="1" arrows="1" fold="1" page="1" pageScale="1" pageWidth="827" pageHeight="1169" math="0" shadow="0">
      <root>
        <mxCell id="0" />
        <mxCell id="1" parent="0" />
        <mxCell id="4Kc2HaVrnk-MGNo5C4es-4" value="" style="curved=1;endArrow=classic;html=1;rounded=0;exitX=0.5;exitY=0;exitDx=0;exitDy=0;entryX=0.5;entryY=1;entryDx=0;entryDy=0;exitPerimeter=0;entryPerimeter=0;" parent="1" source="4Kc2HaVrnk-MGNo5C4es-9" target="4Kc2HaVrnk-MGNo5C4es-10" edge="1">
          <mxGeometry width="50" height="50" relative="1" as="geometry">
            <mxPoint x="399" y="465" as="sourcePoint" />
            <mxPoint x="399" y="565" as="targetPoint" />
            <Array as="points">
              <mxPoint x="395" y="355" />
            </Array>
          </mxGeometry>
        </mxCell>
        <mxCell id="4Kc2HaVrnk-MGNo5C4es-5" value="IReader" style="html=1;outlineConnect=0;whiteSpace=wrap;shape=mxgraph.archimate.application;appType=interface2" parent="1" vertex="1">
          <mxGeometry x="85" y="515" width="100" height="55" as="geometry" />
        </mxCell>
        <mxCell id="4Kc2HaVrnk-MGNo5C4es-9" value="Stance" style="html=1;outlineConnect=0;whiteSpace=wrap;shape=mxgraph.archimate3.application;appType=passive;archiType=square;" parent="1" vertex="1">
          <mxGeometry x="335" y="380" width="150" height="75" as="geometry" />
        </mxCell>
        <mxCell id="4Kc2HaVrnk-MGNo5C4es-10" value="KeyAction" style="html=1;outlineConnect=0;whiteSpace=wrap;shape=mxgraph.archimate3.application;appType=passive;archiType=square;" parent="1" vertex="1">
          <mxGeometry x="335" y="245" width="150" height="75" as="geometry" />
        </mxCell>
        <mxCell id="4Kc2HaVrnk-MGNo5C4es-11" value="" style="curved=1;endArrow=block;html=1;rounded=0;exitX=0;exitY=0.5;exitDx=0;exitDy=0;exitPerimeter=0;entryX=1;entryY=0.5;entryDx=0;entryDy=0;entryPerimeter=0;endFill=0;" parent="1" source="4Kc2HaVrnk-MGNo5C4es-9" target="4Kc2HaVrnk-MGNo5C4es-5" edge="1">
          <mxGeometry width="50" height="50" relative="1" as="geometry">
            <mxPoint x="255" y="475" as="sourcePoint" />
            <mxPoint x="305" y="425" as="targetPoint" />
            <Array as="points">
              <mxPoint x="255" y="425" />
            </Array>
          </mxGeometry>
        </mxCell>
        <mxCell id="4Kc2HaVrnk-MGNo5C4es-12" value="DataProvider" style="html=1;outlineConnect=0;whiteSpace=wrap;shape=mxgraph.archimate.application;appType=interface2;movable=1;resizable=1;rotatable=1;deletable=1;editable=1;locked=0;connectable=1;" parent="1" vertex="1">
          <mxGeometry x="85" y="365" width="100" height="55" as="geometry" />
        </mxCell>
        <mxCell id="4Kc2HaVrnk-MGNo5C4es-13" value="" style="curved=1;endArrow=open;html=1;rounded=0;exitX=1;exitY=0.5;exitDx=0;exitDy=0;exitPerimeter=0;endFill=0;entryX=0;entryY=0.25;entryDx=0;entryDy=0;entryPerimeter=0;" parent="1" source="4Kc2HaVrnk-MGNo5C4es-12" target="4Kc2HaVrnk-MGNo5C4es-9" edge="1">
          <mxGeometry width="50" height="50" relative="1" as="geometry">
            <mxPoint x="245" y="365" as="sourcePoint" />
            <mxPoint x="305" y="485" as="targetPoint" />
            <Array as="points">
              <mxPoint x="245" y="393" />
            </Array>
          </mxGeometry>
        </mxCell>
        <mxCell id="4Kc2HaVrnk-MGNo5C4es-17" value="UnitClass" style="html=1;outlineConnect=0;whiteSpace=wrap;shape=mxgraph.archimate.motiv;motivType=assess;shadow=0;gradientColor=none;fillColor=default;strokeColor=default;perimeterSpacing=0;" parent="1" vertex="1">
          <mxGeometry x="80" y="255" width="110" height="55" as="geometry" />
        </mxCell>
        <mxCell id="4Kc2HaVrnk-MGNo5C4es-18" value="" style="curved=1;endArrow=classic;html=1;rounded=0;fontFamily=Helvetica;fontSize=12;fontColor=default;exitX=1;exitY=0.5;exitDx=0;exitDy=0;exitPerimeter=0;entryX=0;entryY=0;entryDx=0;entryDy=0;entryPerimeter=0;" parent="1" source="4Kc2HaVrnk-MGNo5C4es-17" target="4Kc2HaVrnk-MGNo5C4es-9" edge="1">
          <mxGeometry width="50" height="50" relative="1" as="geometry">
            <mxPoint x="205" y="315" as="sourcePoint" />
            <mxPoint x="255" y="265" as="targetPoint" />
            <Array as="points">
              <mxPoint x="255" y="315" />
            </Array>
          </mxGeometry>
        </mxCell>
        <mxCell id="4Kc2HaVrnk-MGNo5C4es-19" value="ClientVersion" style="html=1;outlineConnect=0;whiteSpace=wrap;shape=mxgraph.archimate.motiv;motivType=assess;shadow=0;gradientColor=none;fillColor=default;strokeColor=default;perimeterSpacing=0;" parent="1" vertex="1">
          <mxGeometry x="80" y="190" width="110" height="55" as="geometry" />
        </mxCell>
        <mxCell id="MS5GB7sfSt4IsoN0eLxR-2" value="" style="verticalLabelPosition=bottom;verticalAlign=top;html=1;shape=mxgraph.flowchart.collate;" vertex="1" parent="1">
          <mxGeometry x="80" y="-380" width="100" height="100" as="geometry" />
        </mxCell>
        <mxCell id="MS5GB7sfSt4IsoN0eLxR-3" value="合并数据" style="text;html=1;align=center;verticalAlign=middle;whiteSpace=wrap;rounded=0;" vertex="1" parent="1">
          <mxGeometry x="180" y="-370" width="60" height="30" as="geometry" />
        </mxCell>
        <mxCell id="MS5GB7sfSt4IsoN0eLxR-4" value="" style="shape=parallelogram;html=1;strokeWidth=2;perimeter=parallelogramPerimeter;whiteSpace=wrap;rounded=1;arcSize=12;size=0.23;" vertex="1" parent="1">
          <mxGeometry x="290" y="-380" width="100" height="60" as="geometry" />
        </mxCell>
        <mxCell id="MS5GB7sfSt4IsoN0eLxR-5" value="数据" style="text;html=1;align=center;verticalAlign=middle;whiteSpace=wrap;rounded=0;" vertex="1" parent="1">
          <mxGeometry x="390" y="-370" width="60" height="30" as="geometry" />
        </mxCell>
        <mxCell id="MS5GB7sfSt4IsoN0eLxR-6" value="" style="strokeWidth=2;html=1;shape=mxgraph.flowchart.decision;whiteSpace=wrap;" vertex="1" parent="1">
          <mxGeometry x="80" y="-230" width="100" height="100" as="geometry" />
        </mxCell>
        <mxCell id="MS5GB7sfSt4IsoN0eLxR-7" value="决策" style="text;html=1;align=center;verticalAlign=middle;whiteSpace=wrap;rounded=0;" vertex="1" parent="1">
          <mxGeometry x="180" y="-210" width="60" height="30" as="geometry" />
        </mxCell>
        <mxCell id="MS5GB7sfSt4IsoN0eLxR-8" value="" style="strokeWidth=2;html=1;shape=mxgraph.flowchart.delay;whiteSpace=wrap;" vertex="1" parent="1">
          <mxGeometry x="290" y="-210" width="100" height="60" as="geometry" />
        </mxCell>
        <mxCell id="MS5GB7sfSt4IsoN0eLxR-9" value="延迟" style="text;html=1;align=center;verticalAlign=middle;whiteSpace=wrap;rounded=0;" vertex="1" parent="1">
          <mxGeometry x="390" y="-210" width="60" height="30" as="geometry" />
        </mxCell>
        <mxCell id="MS5GB7sfSt4IsoN0eLxR-12" value="" style="strokeWidth=2;html=1;shape=mxgraph.flowchart.direct_data;whiteSpace=wrap;" vertex="1" parent="1">
          <mxGeometry x="80" y="-510" width="100" height="60" as="geometry" />
        </mxCell>
        <mxCell id="MS5GB7sfSt4IsoN0eLxR-13" value="原始数据" style="text;html=1;align=center;verticalAlign=middle;whiteSpace=wrap;rounded=0;" vertex="1" parent="1">
          <mxGeometry x="185" y="-510" width="60" height="30" as="geometry" />
        </mxCell>
        <mxCell id="MS5GB7sfSt4IsoN0eLxR-14" value="" style="strokeWidth=2;html=1;shape=mxgraph.flowchart.display;whiteSpace=wrap;" vertex="1" parent="1">
          <mxGeometry x="290" y="-510" width="100" height="60" as="geometry" />
        </mxCell>
        <mxCell id="MS5GB7sfSt4IsoN0eLxR-15" value="数据呈现" style="text;html=1;align=center;verticalAlign=middle;whiteSpace=wrap;rounded=0;" vertex="1" parent="1">
          <mxGeometry x="390" y="-510" width="60" height="30" as="geometry" />
        </mxCell>
        <mxCell id="MS5GB7sfSt4IsoN0eLxR-16" value="" style="strokeWidth=2;html=1;shape=mxgraph.flowchart.document2;whiteSpace=wrap;size=0.25;" vertex="1" parent="1">
          <mxGeometry x="500" y="-510" width="100" height="60" as="geometry" />
        </mxCell>
        <mxCell id="MS5GB7sfSt4IsoN0eLxR-17" value="文档" style="text;html=1;align=center;verticalAlign=middle;whiteSpace=wrap;rounded=0;" vertex="1" parent="1">
          <mxGeometry x="600" y="-510" width="60" height="30" as="geometry" />
        </mxCell>
        <mxCell id="MS5GB7sfSt4IsoN0eLxR-18" value="" style="html=1;strokeWidth=2;shape=manualInput;whiteSpace=wrap;rounded=1;size=26;arcSize=11;" vertex="1" parent="1">
          <mxGeometry x="500" y="-380" width="100" height="60" as="geometry" />
        </mxCell>
        <mxCell id="MS5GB7sfSt4IsoN0eLxR-19" value="手动输入" style="text;html=1;align=center;verticalAlign=middle;whiteSpace=wrap;rounded=0;" vertex="1" parent="1">
          <mxGeometry x="600" y="-380" width="60" height="30" as="geometry" />
        </mxCell>
        <mxCell id="MS5GB7sfSt4IsoN0eLxR-20" value="" style="verticalLabelPosition=middle;verticalAlign=middle;html=1;shape=trapezoid;perimeter=trapezoidPerimeter;whiteSpace=wrap;size=0.23;arcSize=10;flipV=1;labelPosition=center;align=center;" vertex="1" parent="1">
          <mxGeometry x="500" y="-210" width="100" height="60" as="geometry" />
        </mxCell>
        <mxCell id="MS5GB7sfSt4IsoN0eLxR-21" value="手动操作" style="text;html=1;align=center;verticalAlign=middle;whiteSpace=wrap;rounded=0;" vertex="1" parent="1">
          <mxGeometry x="600" y="-210" width="60" height="30" as="geometry" />
        </mxCell>
        <mxCell id="MS5GB7sfSt4IsoN0eLxR-22" value="" style="strokeWidth=2;html=1;shape=mxgraph.flowchart.extract_or_measurement;whiteSpace=wrap;" vertex="1" parent="1">
          <mxGeometry x="82.5" y="-80" width="95" height="60" as="geometry" />
        </mxCell>
        <mxCell id="MS5GB7sfSt4IsoN0eLxR-23" value="数据提取与&lt;div&gt;数据量化&lt;/div&gt;" style="text;html=1;align=center;verticalAlign=middle;whiteSpace=wrap;rounded=0;" vertex="1" parent="1">
          <mxGeometry x="180" y="-65" width="60" height="30" as="geometry" />
        </mxCell>
        <mxCell id="MS5GB7sfSt4IsoN0eLxR-24" value="" style="strokeWidth=2;html=1;shape=mxgraph.flowchart.loop_limit;whiteSpace=wrap;" vertex="1" parent="1">
          <mxGeometry x="290" y="-80" width="100" height="60" as="geometry" />
        </mxCell>
        <mxCell id="MS5GB7sfSt4IsoN0eLxR-25" value="循环次数" style="text;html=1;align=center;verticalAlign=middle;whiteSpace=wrap;rounded=0;" vertex="1" parent="1">
          <mxGeometry x="390" y="-70" width="60" height="30" as="geometry" />
        </mxCell>
        <mxCell id="MS5GB7sfSt4IsoN0eLxR-26" value="" style="verticalLabelPosition=bottom;verticalAlign=top;html=1;shape=offPageConnector;rounded=0;size=0.5;" vertex="1" parent="1">
          <mxGeometry x="520" y="-80" width="60" height="60" as="geometry" />
        </mxCell>
        <mxCell id="MS5GB7sfSt4IsoN0eLxR-27" value="外部数据引用" style="text;html=1;align=center;verticalAlign=middle;whiteSpace=wrap;rounded=0;" vertex="1" parent="1">
          <mxGeometry x="600" y="-70" width="80" height="30" as="geometry" />
        </mxCell>
        <mxCell id="MS5GB7sfSt4IsoN0eLxR-28" value="" style="verticalLabelPosition=bottom;verticalAlign=top;html=1;shape=mxgraph.flowchart.on-page_reference;" vertex="1" parent="1">
          <mxGeometry x="520" y="50" width="60" height="60" as="geometry" />
        </mxCell>
        <mxCell id="MS5GB7sfSt4IsoN0eLxR-29" value="内部数据引用" style="text;html=1;align=center;verticalAlign=middle;whiteSpace=wrap;rounded=0;" vertex="1" parent="1">
          <mxGeometry x="600" y="65" width="80" height="30" as="geometry" />
        </mxCell>
      </root>
    </mxGraphModel>
  </diagram>
</mxfile>
